<svg version="1.1" id="Layer_1" xmlns="http://www.w3.org/2000/svg" xmlns:xlink="http://www.w3.org/1999/xlink" x="0px" y="0px"
	 width="100%" viewBox="0 0 1024 1024" enable-background="new 0 0 1024 1024" xml:space="preserve">
<path fill="#000000" opacity="1.000000" stroke="none" 
	d="
M1025.000000,768.531372 
	C1022.924683,768.133118 1020.735840,768.375366 1018.580444,768.375122 
	C868.588623,768.360718 718.596802,768.346313 568.604980,768.381165 
	C563.683411,768.382324 558.914368,768.488892 555.281860,764.342163 
	C554.195923,763.102539 552.517639,763.352844 551.029358,763.349365 
	C542.363159,763.329163 533.693237,763.479431 525.032471,763.259216 
	C521.003601,763.156738 519.901550,764.798523 519.913208,768.588806 
	C520.002930,797.753540 520.017273,826.919067 519.851379,856.083252 
	C519.824341,860.829956 521.750793,861.922546 526.117920,861.946777 
	C561.656799,862.143799 596.902893,865.528687 631.715210,872.745239 
	C645.075073,875.514709 658.335999,878.868530 670.760620,884.786072 
	C674.978943,886.795166 679.132202,888.947449 682.687012,892.032776 
	C691.021790,899.266724 690.833130,907.339722 682.176880,914.288391 
	C676.112915,919.156128 669.093506,922.328125 661.849060,924.821106 
	C635.078735,934.033569 607.298279,938.315247 579.255798,941.156738 
	C572.301453,941.861389 565.318298,942.311279 558.339478,942.730896 
	C555.464600,942.903809 552.432190,943.710449 549.731445,941.885925 
	C550.013855,939.201782 552.267517,939.299866 553.767578,938.504822 
	C557.018921,936.781677 560.333313,935.170349 561.935547,931.520081 
	C563.981750,926.858276 562.841309,925.032959 557.732361,925.023682 
	C550.750854,925.010986 543.811829,926.291809 536.787842,925.425171 
	C528.289551,924.376648 520.520386,921.609497 514.201172,915.769958 
	C506.998993,909.114319 504.518280,901.174622 507.458252,891.339722 
	C509.601837,884.168945 510.433350,876.767456 504.504364,870.289673 
	C502.080017,867.640869 502.328674,864.185913 505.940918,862.290710 
	C508.294769,861.055664 508.776886,859.363647 508.774200,857.033264 
	C508.739838,827.368225 508.708466,797.703064 508.784607,768.038208 
	C508.793243,764.672485 507.754700,763.380920 504.217865,763.273132 
	C488.261261,762.786499 488.267914,762.688660 488.270203,778.724304 
	C488.273773,803.722961 488.327850,828.721863 488.225006,853.720093 
	C488.204315,858.749512 488.033844,863.480408 495.268829,863.195862 
	C494.597870,866.651733 494.006622,869.416382 492.453644,871.775879 
	C488.194244,878.247498 487.979767,885.113037 489.919678,892.348206 
	C492.647705,902.522705 489.300140,910.642761 481.246613,917.085144 
	C473.518524,923.267151 464.657135,926.062927 454.824280,926.061340 
	C451.330841,926.060730 447.853210,926.073547 444.389313,926.882263 
	C440.834900,927.712219 440.988068,929.502197 442.735199,931.864624 
	C444.545929,934.312988 447.283813,935.275024 450.099792,935.687622 
	C456.108002,936.568054 462.039398,936.657043 467.522858,933.262573 
	C477.356110,927.175476 488.813354,926.889954 499.692505,925.003235 
	C507.891174,923.581421 526.157043,935.725342 528.837891,942.946960 
	C527.775574,944.411743 526.144653,943.944275 524.730286,944.024109 
	C492.893890,945.821045 461.157410,944.337708 429.434021,941.453125 
	C404.685822,939.202759 380.194000,935.606689 356.172607,929.175476 
	C346.830200,926.674194 337.707916,923.488098 329.159760,918.857361 
	C327.988342,918.222778 326.809906,917.589905 325.695038,916.863647 
	C312.171539,908.054932 312.127655,897.617859 325.797668,888.990784 
	C340.149261,879.933472 356.482605,876.316772 372.749939,872.752380 
	C405.225830,865.636658 438.248962,863.211182 471.369537,861.937866 
	C476.115631,861.755310 477.744812,860.264954 477.687256,855.493469 
	C477.369659,829.174988 477.303558,802.853455 477.151215,776.532959 
	C477.150238,776.366333 477.147827,776.199707 477.147278,776.033081 
	C477.106964,763.329102 477.106995,763.325073 464.515503,763.323547 
	C429.517365,763.319397 394.519135,763.273193 359.521210,763.357971 
	C353.056488,763.373657 346.867554,762.228882 341.092194,759.532776 
	C337.320496,757.771973 333.567505,757.265930 329.508453,757.267700 
	C224.514252,757.313293 119.519997,757.280640 14.525855,757.376953 
	C9.362239,757.381653 4.986205,756.383118 1.297131,752.168091 
	C1.000000,732.645752 1.000000,713.291565 1.000000,693.468628 
	C4.802067,688.605652 9.641756,687.597229 15.323822,687.608459 
	C84.814079,687.745605 154.304703,687.701416 223.795227,687.698608 
	C232.166458,687.698303 232.169373,687.684387 235.127335,680.094727 
	C238.340134,671.851196 243.329483,665.175049 251.876205,661.934753 
	C254.922562,660.779846 255.515594,658.777954 255.813721,655.832581 
	C259.141418,622.955933 269.152710,592.739990 291.481140,567.516418 
	C296.586304,561.749390 302.134369,556.394958 308.617554,552.286133 
	C312.713745,549.690063 313.755951,546.593994 313.746643,541.986450 
	C313.612732,475.662415 314.124969,409.333008 313.415833,343.016296 
	C313.146179,317.798431 332.488770,294.712646 361.682007,294.863220 
	C400.675690,295.064331 439.671143,294.921082 478.665833,294.928528 
	C486.969910,294.930084 486.902405,294.936523 486.785614,286.791626 
	C485.931030,227.194016 510.342102,180.817032 560.292603,148.377060 
	C581.888489,134.351791 605.981384,127.347282 631.817261,125.517006 
	C702.714905,120.494476 768.222107,166.437714 789.449402,233.419006 
	C815.087036,314.316895 769.652222,401.965515 688.656555,427.446228 
	C684.648499,428.707123 683.246887,430.529968 683.269714,434.831940 
	C683.459900,470.659332 683.396179,506.488098 683.370178,542.316467 
	C683.367676,545.762695 683.658264,548.816223 686.920349,551.062683 
	C710.446106,567.264038 724.394409,590.272339 733.359436,616.789246 
	C737.590454,629.303589 739.924133,642.210205 741.265625,655.307678 
	C741.577515,658.352173 742.327637,660.687317 745.461243,661.986633 
	C757.228149,666.865417 761.816895,676.933777 764.262146,688.476257 
	C764.364868,688.961182 764.321899,689.475159 764.392761,689.968994 
	C765.673889,698.902161 765.675354,698.900452 774.605896,698.899719 
	C857.760315,698.892578 940.914673,698.886047 1024.534546,698.939636 
	C1025.000000,722.020874 1025.000000,745.041809 1025.000000,768.531372 
M654.566711,748.119690 
	C666.544739,740.942810 672.738892,730.494690 672.729309,716.409912 
	C672.693237,663.424255 672.701172,610.438660 672.701782,557.453003 
	C672.702271,517.630493 672.724792,477.807953 672.716675,437.985443 
	C672.715454,431.964081 672.550720,431.981628 666.884521,432.811218 
	C662.120056,433.508850 657.312012,434.087952 652.506348,434.265869 
	C649.000366,434.395721 646.571777,435.739349 644.500305,438.465363 
	C637.189148,448.087097 628.555176,456.387634 618.596313,463.220856 
	C599.704407,476.183502 578.720703,482.118561 555.856201,481.075592 
	C546.443298,480.646210 542.281189,477.842712 540.934448,471.993652 
	C539.719299,466.716064 542.256592,463.232452 550.491638,458.645721 
	C563.129456,451.606750 572.578308,441.711365 578.156433,428.184357 
	C579.869934,424.028992 579.358032,421.963348 574.967163,419.787537 
	C529.906799,397.458282 501.925293,361.440918 490.418976,312.638885 
	C489.228912,307.591400 487.352417,305.955688 482.172180,305.983734 
	C442.017487,306.201141 401.852203,306.632599 361.708984,305.927246 
	C339.573883,305.538300 323.982758,323.048920 324.126862,343.544189 
	C324.843719,445.500366 323.847229,547.461182 324.652435,649.421997 
	C324.825897,671.386475 324.475098,693.388489 324.337555,715.372437 
	C324.199005,737.513611 339.499908,752.673523 361.696289,752.676086 
	C453.004883,752.686890 544.313477,752.671509 635.622070,752.703674 
	C642.079712,752.705933 648.179871,751.458008 654.566711,748.119690 
M608.901489,139.430023 
	C565.823853,150.390060 533.685059,175.292130 512.935852,214.715607 
	C500.371521,238.587814 497.017029,264.283386 498.180298,290.781372 
	C498.963806,308.629669 503.926941,325.490723 511.416077,341.638733 
	C512.694275,344.394897 514.379578,346.984436 517.195496,348.336243 
	C529.068176,354.035858 537.283325,363.496979 543.919861,374.461548 
	C546.320435,378.427582 549.401672,379.545807 553.565918,378.533203 
	C557.382751,377.605103 560.096985,379.230530 563.099365,381.455139 
	C571.374573,387.586639 579.434692,394.407623 588.615845,398.781128 
	C595.052490,401.847321 598.204529,404.513672 598.040649,411.864471 
	C597.903076,418.033417 599.584229,418.597473 605.602051,416.737946 
	C610.614380,415.189117 614.185486,416.450592 617.078064,421.056549 
	C619.289062,424.577148 621.279602,428.236206 623.370178,431.832520 
	C626.191406,436.685699 629.876465,437.336578 633.914551,433.579315 
	C635.617065,431.995300 637.402283,430.377441 638.644958,428.449463 
	C640.761658,425.165527 643.453003,423.788696 647.380005,423.904663 
	C653.388062,424.082062 659.293091,422.842865 665.240784,422.096924 
	C671.376709,421.327393 676.145508,417.285767 682.150879,416.224426 
	C706.591797,411.904907 726.202698,399.002533 742.896667,381.183289 
	C745.160217,378.767181 746.902222,375.917877 749.472900,373.704834 
	C757.573608,366.731293 763.546204,358.075256 767.613342,348.297882 
	C773.358887,334.485535 769.802429,327.197876 756.134827,323.511963 
	C752.484680,322.527527 750.813782,320.635498 751.674072,316.614197 
	C752.344421,313.480560 753.278992,310.497833 754.691345,307.654297 
	C759.690063,297.589844 760.210327,286.881378 759.236328,275.974426 
	C758.474915,267.449036 756.126526,259.313660 753.248413,251.273758 
	C750.279114,242.979340 750.542114,235.352631 758.167114,229.147476 
	C761.719666,226.256485 764.036133,222.081100 763.899536,217.353485 
	C763.623413,207.796402 761.823914,198.964020 755.485962,190.898560 
	C732.827698,162.064377 703.086975,145.421234 667.661743,138.097183 
	C648.283752,134.090851 628.956970,134.940308 608.901489,139.430023 
M683.889832,604.527100 
	C683.910217,627.510010 683.967834,650.492981 683.926208,673.475769 
	C683.915039,679.631958 683.496277,685.786926 683.456787,691.943665 
	C683.420593,697.592957 684.575928,698.762329 690.079041,698.869995 
	C695.239624,698.971008 700.405518,698.796570 705.565979,698.899841 
	C709.558777,698.979736 711.445984,697.585083 711.931396,693.219116 
	C713.279846,681.092163 717.237549,670.160095 728.315063,663.243164 
	C730.709473,661.748047 730.719849,659.440857 730.374207,657.045044 
	C729.473145,650.799133 728.855774,644.492737 727.577759,638.323975 
	C721.983337,611.320862 710.956726,587.116577 690.465332,567.953003 
	C689.084961,566.662048 687.684875,564.590759 685.377625,565.778564 
	C683.308472,566.843750 683.437927,569.058350 683.466125,571.089417 
	C683.616333,581.905762 683.749451,592.722229 683.889832,604.527100 
M313.629791,592.500061 
	C313.422211,583.018494 314.065125,573.487366 313.130219,562.858826 
	C304.967773,568.207153 299.727844,574.180176 294.879364,580.491089 
	C277.371033,603.280334 269.457245,629.619934 266.546844,657.776062 
	C266.307312,660.093323 266.944946,662.112793 269.004120,663.407959 
	C276.632599,668.206238 280.852051,675.406738 283.288452,683.801453 
	C284.126251,686.688354 285.795990,687.799438 288.741882,687.739929 
	C294.571869,687.622253 300.406128,687.728821 306.238586,687.718750 
	C313.368378,687.706360 313.601257,687.522766 313.607819,680.487610 
	C313.634857,651.491760 313.624664,622.495972 313.629791,592.500061 
M144.105377,699.240356 
	C139.504166,698.331421 136.598114,700.302124 134.474030,704.354126 
	C132.733368,707.674744 119.600945,709.583740 116.739731,707.150024 
	C116.292107,706.769348 115.961670,706.054138 115.891670,705.456726 
	C115.223892,699.756592 111.135269,699.763977 106.972878,700.203857 
	C102.375359,700.689697 99.419510,702.731995 98.867485,707.957520 
	C98.251968,713.784058 99.919945,719.378235 99.819565,725.171631 
	C99.748016,729.301331 100.467140,732.777222 94.602028,733.607788 
	C97.417114,736.770020 100.242767,737.802063 103.770065,737.792175 
	C122.219131,737.740723 140.668961,737.884521 159.117477,737.777649 
	C162.903839,737.755737 166.787048,738.056091 170.494202,736.880737 
	C171.876450,736.442444 173.715088,736.021484 173.435486,734.086060 
	C173.156815,732.157288 171.107590,730.991150 169.728485,731.559753 
	C165.650269,733.241455 161.676056,731.192444 157.620926,731.847839 
	C153.086456,732.580811 149.523453,727.115173 151.177231,722.744690 
	C152.627914,718.910950 154.035309,715.082886 156.722549,712.758606 
	C157.051117,708.531494 152.123062,708.893372 151.922272,705.782532 
	C151.629196,701.241943 148.510773,700.120056 144.105377,699.240356 
M476.427460,906.854797 
	C481.694550,900.235535 480.982635,894.411194 474.287933,889.349731 
	C463.893524,881.491333 445.728821,881.157776 434.696075,888.622986 
	C425.737762,894.684509 425.770538,903.476501 434.774048,909.532410 
	C446.459900,917.392517 464.861267,916.422546 476.427460,906.854797 
M518.315430,894.092285 
	C516.153870,900.151062 517.039917,903.681824 521.769897,907.858032 
	C532.050110,916.935059 553.554077,917.074158 564.082092,908.131653 
	C570.692078,902.517273 570.686523,895.582764 564.067566,889.910645 
	C552.103943,879.658325 528.996643,881.450562 518.315430,894.092285 
M273.392059,706.742615 
	C275.093719,699.091064 274.875061,691.512695 271.899933,684.227112 
	C269.445679,678.217102 266.157990,672.254761 258.735077,672.277466 
	C251.642502,672.299194 248.252975,677.890320 245.678635,683.745361 
	C240.564301,695.377136 242.870743,712.095154 250.639572,719.927246 
	C255.673309,725.001953 261.248016,725.036926 266.421661,720.119263 
	C270.070953,716.650635 271.846588,712.226440 273.392059,706.742615 
M746.939880,676.548645 
	C740.094788,670.443970 732.926270,670.851990 728.475403,678.244934 
	C721.372131,690.043701 720.848511,702.491150 726.894348,714.884888 
	C729.193420,719.598083 732.772278,723.738770 738.677429,723.592102 
	C744.532410,723.446716 747.934753,719.285522 750.147827,714.454895 
	C756.048950,701.574097 755.561279,689.024048 746.939880,676.548645 
M703.525818,736.888733 
	C705.379700,731.481262 706.570496,725.604431 714.987244,723.500122 
	C708.741028,720.862915 704.661377,718.138733 704.925720,712.211243 
	C704.945740,711.761658 704.142639,711.153625 703.598694,710.821289 
	C700.960022,709.208740 691.453735,710.195984 689.935852,712.720886 
	C687.233032,717.216919 683.324524,721.187317 682.619507,726.678589 
	C682.122559,730.549805 680.584412,734.024963 679.131470,737.540588 
	C676.458984,744.007019 680.689636,750.211121 687.769287,749.537903 
	C691.760559,749.158386 695.731934,749.068054 699.715576,748.982361 
	C702.147644,748.929993 704.165894,748.158997 706.141907,746.704712 
	C708.834045,744.723389 708.432495,742.898743 706.248779,741.076904 
	C705.046692,740.074036 702.962585,739.913940 703.525818,736.888733 
M291.381866,714.207397 
	C293.575592,714.787903 295.592194,716.299011 297.968140,714.044678 
	C299.457184,712.631897 301.315765,713.545044 302.811859,715.012634 
	C303.965057,716.143982 303.938599,718.198853 306.024902,718.830811 
	C307.439850,717.329285 308.496460,715.542542 307.698578,713.530029 
	C306.960388,711.668030 305.021088,711.171021 303.071259,711.227417 
	C299.131165,711.341309 296.614807,709.027527 294.607727,706.077148 
	C293.077057,703.827087 291.751373,701.323792 288.493256,701.887695 
	C284.890442,702.511292 284.895691,705.608643 284.224823,708.387512 
	C281.632233,719.126892 276.735840,728.273682 266.215698,733.346802 
	C264.992828,733.936523 263.220856,734.167358 263.386475,736.218750 
	C279.153473,737.724609 294.865967,739.811340 310.906738,734.977051 
	C309.106903,732.049377 308.304871,727.390686 304.335907,730.086487 
	C300.476288,732.708008 296.736237,732.015869 292.897766,732.140076 
	C289.584442,732.247314 284.319061,727.847107 285.001953,725.758240 
	C286.322906,721.717834 287.225372,717.376404 291.381866,714.207397 
M816.949463,732.206238 
	C821.219055,729.685486 822.271118,726.372803 819.721069,723.479004 
	C811.235352,713.849915 799.523743,713.838013 791.213196,723.488281 
	C789.376343,725.621338 788.379333,728.028625 789.702820,730.838257 
	C791.025879,733.647095 793.081848,735.377014 796.376953,735.008423 
	C798.686768,734.750000 800.977783,734.315735 803.289551,734.083740 
	C805.264282,733.885620 807.904907,733.252991 808.960327,734.987305 
	C812.877747,741.424133 814.090576,738.195679 815.241699,733.542480 
	C815.339905,733.145386 815.949402,732.874817 816.949463,732.206238 
M417.011017,902.006348 
	C416.148376,897.023376 417.579010,892.446289 419.472107,887.941772 
	C420.579620,885.306335 419.768341,883.502258 416.827698,883.616943 
	C412.657318,883.779602 404.902710,891.768433 404.308502,896.135132 
	C403.219482,904.138000 410.208313,915.930481 417.742828,918.865784 
	C419.540710,919.566101 421.276398,920.144775 422.647064,918.183777 
	C423.787048,916.552856 423.324005,915.082458 422.156036,913.637512 
	C419.592255,910.465515 418.120789,906.773804 417.011017,902.006348 
M230.257095,721.610779 
	C229.983093,725.984192 231.177124,730.500977 228.195160,735.153687 
	C235.036179,737.234070 241.495941,736.520935 247.749359,736.470032 
	C250.464661,736.447937 249.434601,733.622009 247.833008,732.484192 
	C241.762970,728.172119 238.169846,722.102844 235.032349,715.582397 
	C234.092026,713.628113 232.810730,711.451782 229.779968,711.745239 
	C228.746384,714.912170 231.017410,717.728027 230.257095,721.610779 
M14.207347,734.589233 
	C17.612089,733.183044 21.059742,731.961365 19.167606,726.916260 
	C18.739712,725.775391 19.482162,723.862854 20.251440,722.670349 
	C22.261309,719.554810 21.570347,716.717102 20.095583,713.723633 
	C19.071018,711.644043 18.510557,708.927795 15.484433,709.355042 
	C12.470337,709.780518 11.610953,712.427979 11.509378,714.980957 
	C11.297764,720.299683 11.373310,725.631287 11.402984,730.957214 
	C11.411494,732.484924 11.724438,733.977783 14.207347,734.589233 
M182.858917,726.402405 
	C182.249634,722.819885 184.715714,718.036438 179.290146,715.961365 
	C178.114273,717.425537 178.418747,718.632507 178.267883,719.756958 
	C177.723160,723.817078 180.099823,727.764893 178.282791,731.981934 
	C176.939346,735.099854 179.231674,735.741516 181.813278,735.241577 
	C183.666382,734.882690 185.428238,735.031189 187.243530,735.468140 
	C188.985489,735.887573 190.731827,735.941101 191.985107,734.140259 
	C189.070663,731.277100 181.883148,734.758118 182.858917,726.402405 
z"/>
<path fill="#000000" opacity="1.000000" stroke="none" 
	d="
M573.601074,618.854248 
	C552.092651,611.789856 547.840149,588.433655 557.245178,574.102539 
	C564.148560,563.583313 578.295959,558.379456 590.539795,562.280334 
	C603.992065,566.566223 612.368408,579.132019 611.250549,593.349915 
	C610.275696,605.749634 600.015381,616.967041 587.804749,619.311218 
	C583.117676,620.211121 578.571289,619.999939 573.601074,618.854248 
M576.566772,594.400513 
	C577.756409,593.813171 579.038879,593.360474 580.119446,592.615051 
	C584.687439,589.463745 586.459290,585.006897 585.622620,579.607117 
	C584.831726,574.503662 581.610779,571.114136 576.853516,569.687927 
	C571.752747,568.158875 566.983337,569.110229 563.249756,573.406860 
	C559.908081,577.252502 559.087219,582.709717 561.300537,587.381897 
	C563.863647,592.792419 568.458191,595.076782 576.566772,594.400513 
M586.898621,593.300171 
	C584.345642,594.245422 583.739319,596.141113 584.685669,598.468750 
	C585.376404,600.167664 586.880920,600.958069 588.740906,600.525879 
	C590.528748,600.110474 591.679749,598.950317 591.690063,597.037781 
	C591.704285,594.385193 590.275452,593.110596 586.898621,593.300171 
z"/>
<path fill="#000000" opacity="1.000000" stroke="none" 
	d="
M402.318420,616.941101 
	C389.604065,610.010315 383.555939,597.563721 386.397644,584.712769 
	C389.436279,570.971436 400.097839,561.786255 414.088165,560.856934 
	C428.208679,559.918945 442.256134,571.364014 444.220337,585.406921 
	C446.464996,601.454895 436.495972,616.264465 421.600586,619.274719 
	C414.995605,620.609497 408.735352,619.917969 402.318420,616.941101 
M418.626678,577.912354 
	C418.290863,577.154053 418.028748,576.351868 417.607697,575.644348 
	C413.863770,569.352966 406.607788,567.157715 400.361359,570.398499 
	C394.447388,573.466797 391.797455,580.455566 394.252533,586.509644 
	C396.868652,592.960876 403.602325,596.201721 410.095154,594.347656 
	C416.113373,592.629089 421.330933,584.399170 418.626678,577.912354 
M423.425598,600.044250 
	C426.167572,597.681702 426.457062,595.365906 423.015808,593.505737 
	C421.468658,592.669556 419.806427,593.090942 418.521088,594.406982 
	C417.377350,595.577942 416.996948,596.976868 417.804108,598.438232 
	C418.896515,600.416077 420.608917,601.078674 423.425598,600.044250 
z"/>
<path fill="#000000" opacity="1.000000" stroke="none" 
	d="
M530.284302,671.736572 
	C493.313354,657.360046 460.434845,663.181580 431.506836,690.024597 
	C428.779114,692.555725 425.875946,694.894043 422.488953,691.430542 
	C418.945923,687.807495 421.298492,684.732544 424.129486,682.026062 
	C441.445648,665.471191 461.736603,655.287598 485.874908,653.648315 
	C514.856873,651.680176 540.350647,660.371704 562.424011,679.192017 
	C563.815430,680.378357 565.149048,681.650696 566.384888,682.997437 
	C568.796814,685.625793 569.679260,688.635803 566.981201,691.440918 
	C564.144592,694.390137 561.277710,693.198303 558.714844,690.678223 
	C550.541870,682.641907 541.152161,676.422363 530.284302,671.736572 
z"/>
<path fill="#000000" opacity="1.000000" stroke="none" 
	d="
M656.419434,195.344360 
	C666.100586,201.408875 668.977966,210.662354 669.114624,220.844086 
	C669.398621,241.996750 669.575806,263.163208 669.129944,284.309937 
	C668.644043,307.354523 647.484009,319.856873 626.580688,309.902649 
	C615.410217,304.583191 612.203857,294.434265 611.949036,283.433167 
	C611.470825,262.787964 611.620605,242.119614 611.964233,221.468460 
	C612.088623,213.991974 613.412170,206.504944 618.711609,200.499710 
	C626.176880,192.040146 640.337830,189.120560 652.424133,193.578278 
	C653.671631,194.038391 654.871765,194.626953 656.419434,195.344360 
M645.155151,293.936584 
	C648.325134,292.252075 649.558044,289.240845 649.575806,286.031586 
	C649.702393,263.209106 649.740906,240.385071 649.587646,217.563004 
	C649.551880,212.237534 646.161743,209.413040 640.892700,209.309845 
	C634.705139,209.188690 631.572510,212.131210 631.542053,219.560699 
	C631.453369,241.204956 631.537659,262.854645 631.966003,284.494080 
	C632.147034,293.636475 635.391907,295.789215 645.155151,293.936584 
z"/>
<path fill="#000000" opacity="1.000000" stroke="none" 
	d="
M597.434814,264.398926 
	C597.276794,269.047333 597.744446,271.449280 603.274475,272.875702 
	C609.539551,274.491760 605.241089,281.478607 606.123352,286.002197 
	C606.677490,288.843597 604.913696,290.433929 601.983215,290.130127 
	C598.024658,289.719788 597.162598,291.715820 597.358398,295.198151 
	C597.591858,299.351379 597.362305,303.528473 597.477417,307.691284 
	C597.547363,310.218658 596.546265,311.382294 593.983582,311.338104 
	C590.152344,311.272034 586.314331,311.200165 582.488098,311.353119 
	C579.081238,311.489288 577.602356,310.137360 577.760803,306.669250 
	C577.927917,303.010986 577.617310,299.327484 577.851257,295.676514 
	C578.110840,291.625580 576.647766,290.026398 572.443665,290.148590 
	C564.286255,290.385712 556.113953,290.067078 547.952271,290.219727 
	C544.142456,290.290955 543.061768,288.872498 542.548706,285.039307 
	C541.031189,273.703064 546.168091,264.270966 550.279297,254.508484 
	C558.099976,235.937668 566.145691,217.460205 573.797180,198.820526 
	C575.649719,194.307480 578.032654,192.565353 583.030212,192.679993 
	C597.345642,193.008469 597.331482,192.777710 597.340271,206.976318 
	C597.351990,225.972092 597.397583,244.967834 597.434814,264.398926 
M577.757507,267.134460 
	C577.757507,256.368744 577.757507,245.603027 577.757507,234.837326 
	C577.377991,234.797470 576.998474,234.757614 576.618958,234.717758 
	C571.437683,246.963715 566.256470,259.209686 560.641235,272.481293 
	C565.634338,272.481293 569.405762,272.562317 573.171753,272.454346 
	C575.936462,272.375122 578.100342,271.437653 577.757507,267.134460 
z"/>
<path fill="#000000" opacity="1.000000" stroke="none" 
	d="
M677.820557,268.025940 
	C687.773804,244.528275 697.663086,221.434219 707.290649,198.231552 
	C708.955444,194.219254 711.187927,192.414429 715.496582,192.803406 
	C718.470703,193.071899 721.491028,193.032867 724.479309,192.891037 
	C728.750977,192.688309 730.344055,194.518341 730.315735,198.817444 
	C730.190857,217.792862 730.294861,236.769775 730.315369,255.746155 
	C730.318604,258.742432 730.479187,261.749237 730.282471,264.732452 
	C729.996094,269.076019 730.783997,272.381927 736.055115,272.632568 
	C738.282593,272.738525 739.219849,274.203217 739.227722,276.335663 
	C739.239502,279.497833 739.180115,282.661957 739.275085,285.821564 
	C739.361877,288.711548 738.137695,290.373962 735.187927,290.116486 
	C731.002991,289.751190 730.060669,291.869568 730.279907,295.539368 
	C730.497925,299.187805 730.195435,302.864899 730.334167,306.521362 
	C730.458069,309.784546 729.441040,311.426025 725.825256,311.352448 
	C707.977844,310.989197 711.456055,314.004730 710.887024,296.805511 
	C710.670959,290.273956 710.890015,290.253021 704.198486,290.217529 
	C696.541504,290.176941 688.882874,290.065887 681.227905,290.178772 
	C677.179138,290.238495 675.402710,288.581451 675.694702,284.507202 
	C676.082275,279.099060 674.595703,273.471497 677.820557,268.025940 
M695.589294,272.218597 
	C699.386108,272.227264 703.186157,272.333771 706.978394,272.206848 
	C709.153503,272.133972 710.831482,271.206635 710.828369,268.596985 
	C710.815002,257.375641 710.822693,246.154297 710.822693,234.932953 
	C707.530640,240.140793 704.918579,245.455994 702.854736,250.976120 
	C700.261047,257.913177 696.292114,264.345673 695.589294,272.218597 
z"/>
<path fill="#000000" opacity="1.000000" stroke="none" 
	d="
M620.079407,349.892395 
	C625.088928,356.840912 622.745300,364.707458 623.704956,371.993561 
	C624.036255,374.509338 621.361511,374.256378 619.574768,374.323853 
	C617.286926,374.410248 615.023315,374.213959 614.835449,371.233398 
	C614.646912,368.244751 614.690247,365.240112 614.676147,362.242279 
	C614.667419,360.387970 614.497314,358.580536 613.605713,356.912354 
	C612.895203,355.583069 611.752563,355.025726 610.290527,355.214447 
	C608.618958,355.430145 608.169312,356.688080 608.134888,358.106628 
	C608.038025,362.103546 607.910095,366.103851 607.982971,370.099396 
	C608.035767,372.998413 606.989014,374.401764 603.924377,374.348114 
	C601.167297,374.299866 598.910400,374.087769 598.917664,370.483124 
	C598.946289,356.322388 598.897278,342.161469 598.904724,328.000641 
	C598.906250,325.098724 600.451477,323.776062 603.338928,323.922852 
	C604.501892,323.982025 605.670837,323.922424 606.837097,323.919006 
	C622.381775,323.873444 628.368896,334.443878 620.591675,348.190094 
	C620.349548,348.618164 620.211975,349.105377 620.079407,349.892395 
M612.510437,333.052185 
	C609.487549,331.695190 608.135193,332.886200 608.093628,335.985840 
	C608.064941,338.129700 608.068542,340.275085 608.114990,342.418518 
	C608.149231,343.997375 608.519897,345.443756 610.431702,345.661438 
	C612.408081,345.886414 613.553467,344.783966 614.045776,343.007141 
	C614.952393,339.734894 615.107605,336.504608 612.510437,333.052185 
z"/>
<path fill="#000000" opacity="1.000000" stroke="none" 
	d="
M642.821045,364.042603 
	C642.813965,363.252808 642.828247,362.919159 642.815613,362.586548 
	C642.692383,359.336243 643.489258,354.790344 638.787476,354.941406 
	C634.194519,355.089020 636.767212,359.619598 636.310120,362.169342 
	C635.875793,364.591614 636.111389,367.153503 636.212341,369.647522 
	C636.348267,373.006622 634.994263,374.410736 631.496460,374.352448 
	C627.977600,374.293762 627.110046,372.189636 627.273743,369.511749 
	C628.107910,355.864105 627.502197,342.209259 627.604492,328.559723 
	C627.630493,325.094635 628.923889,323.644135 632.322510,323.897461 
	C633.480957,323.983826 634.653198,323.877899 635.819275,323.870880 
	C650.072266,323.785034 656.174316,333.426208 649.923279,346.480133 
	C648.781189,348.865204 648.700317,350.523682 649.960999,352.857391 
	C653.222717,358.895264 651.893616,365.545532 651.852539,371.989197 
	C651.839966,373.962769 650.169495,374.250519 648.588440,374.245148 
	C646.611511,374.238434 644.289673,374.564270 643.735962,371.910278 
	C643.229492,369.482574 643.116333,366.972839 642.821045,364.042603 
M642.794434,338.621521 
	C642.754517,337.792236 642.766724,336.956451 642.664551,336.134918 
	C642.382507,333.866730 641.235291,332.360138 638.792297,332.483398 
	C636.167786,332.615814 636.295715,334.697510 636.265381,336.531219 
	C636.229614,338.689545 636.250305,340.849731 636.295776,343.008087 
	C636.327087,344.493134 636.956726,345.608734 638.558533,345.795898 
	C640.183167,345.985718 641.679321,345.491119 642.204468,343.864044 
	C642.651428,342.479309 642.617615,340.939392 642.794434,338.621521 
z"/>
<path fill="#000000" opacity="1.000000" stroke="none" 
	d="
M678.836914,367.410889 
	C675.542725,373.416382 670.844360,375.870209 665.238647,374.797546 
	C659.486023,373.696777 656.164368,370.292053 655.489929,363.842438 
	C654.452332,353.919556 654.633057,343.934143 655.561890,334.022675 
	C656.223877,326.959015 660.271973,323.728577 667.164307,323.661285 
	C674.278564,323.591858 679.255188,326.987274 679.693542,333.791748 
	C680.406067,344.853424 680.966553,355.998779 678.836914,367.410889 
M670.631653,364.643158 
	C670.689575,355.171112 670.764160,345.699127 670.792969,336.226990 
	C670.799744,333.997589 670.003357,332.181458 667.422729,332.196136 
	C664.793457,332.211029 664.165588,334.124176 664.163086,336.313721 
	C664.153259,344.961792 664.049561,353.612915 664.248718,362.256744 
	C664.351196,366.701904 666.091614,367.458740 670.631653,364.643158 
z"/>
<path fill="#000000" opacity="1.000000" stroke="none" 
	d="
M707.804688,356.847717 
	C707.998779,361.754364 708.049805,366.246399 708.182739,370.736023 
	C708.258728,373.302826 707.043945,374.337799 704.553772,374.270538 
	C702.226440,374.207672 700.045532,373.911377 699.852112,371.015381 
	C699.652527,368.028687 699.718567,365.024475 699.656982,362.028198 
	C699.622925,360.369781 699.739746,358.694000 698.935852,357.138611 
	C698.008850,355.344818 696.625366,354.224213 694.552246,354.509491 
	C692.299133,354.819519 692.348267,356.664581 692.332397,358.356384 
	C692.296570,362.186829 692.239502,366.017975 692.278503,369.847931 
	C692.306213,372.571472 691.549500,374.280334 688.344910,374.257599 
	C685.141846,374.234924 683.832214,372.798096 683.830322,369.709717 
	C683.821838,355.727264 683.774841,341.744751 683.720520,327.762360 
	C683.711243,325.380096 684.608887,323.945099 687.198364,323.957825 
	C690.360596,323.973419 693.551331,323.666626 696.680176,323.985321 
	C706.331787,324.968536 711.044678,333.043365 707.188660,343.643951 
	C705.448608,348.427460 705.249939,352.249054 707.804688,356.847717 
M696.813599,345.872040 
	C700.557312,342.899567 699.952759,338.970398 698.993225,335.105133 
	C698.466858,332.984802 696.562439,332.018982 694.775269,333.210327 
	C691.529663,335.373871 692.571106,339.047760 692.431030,342.208496 
	C692.322266,344.663330 693.203003,346.440887 696.813599,345.872040 
z"/>
<path fill="#000000" opacity="1.000000" stroke="none" 
	d="
M580.105591,374.370789 
	C573.013123,374.231842 572.860413,374.113495 572.853210,367.638641 
	C572.839111,354.984528 572.959290,342.329407 572.825134,329.676788 
	C572.779724,325.397705 574.378418,323.591644 578.724854,323.891937 
	C582.370667,324.143829 586.049011,324.011963 589.710144,323.928284 
	C592.979858,323.853546 595.267517,324.639771 595.179749,328.575104 
	C595.096130,332.323029 592.548096,332.219635 589.964783,332.216858 
	C589.798279,332.216675 589.631714,332.215576 589.465271,332.218201 
	C582.433289,332.328308 580.099060,335.725372 582.199280,342.564911 
	C583.037476,345.294678 585.211609,344.747528 587.095886,344.832428 
	C589.941040,344.960602 592.381409,345.103455 592.309509,349.082245 
	C592.237366,353.081146 589.709167,353.263153 586.916199,353.104156 
	C583.254456,352.895691 581.880188,354.394440 582.035400,358.094757 
	C582.394287,366.652130 580.878113,366.850708 590.275330,366.676666 
	C593.083923,366.624695 595.197327,367.074707 595.184387,370.640411 
	C595.170715,374.404053 592.690430,374.366699 590.080750,374.362274 
	C586.917175,374.356873 583.753540,374.367340 580.105591,374.370789 
z"/>
</svg>